<?xml version="1.0" standalone="no"?>
<!DOCTYPE svg PUBLIC "-//W3C//DTD SVG 20010904//EN"
 "http://www.w3.org/TR/2001/REC-SVG-20010904/DTD/svg10.dtd">
<svg version="1.0" xmlns="http://www.w3.org/2000/svg"
 width="900.000000pt" height="864.000000pt" viewBox="0 0 900.000000 864.000000"
 preserveAspectRatio="xMidYMid meet">
<metadata>
Created by potrace 1.10, written by Peter Selinger 2001-2011
</metadata>
<g transform="translate(0.000000,864.000000) scale(0.100000,-0.100000)"
fill="#000000" stroke="none">
<path d="M917 8073 c-4 -3 -7 -163 -7 -354 0 -307 -2 -348 -16 -353 -9 -3 -64
-6 -124 -6 -80 0 -111 -4 -119 -14 -7 -9 -11 -40 -9 -78 l3 -63 110 -2 c61 -2
120 -5 133 -8 l22 -5 0 -865 0 -865 -27 -11 c-16 -6 -68 -10 -118 -9 -49 1
-98 1 -108 1 -16 -1 -18 -10 -15 -73 l3 -73 122 -3 c86 -2 124 -6 132 -16 8
-9 10 -259 9 -877 l-3 -864 -130 -5 -130 -5 0 -70 0 -70 119 -3 c67 -1 126 -7
133 -14 19 -15 19 -1733 0 -1745 -6 -4 -66 -10 -132 -13 l-120 -5 0 -65 0 -65
122 -3 c84 -2 124 -7 132 -16 7 -8 12 -129 13 -362 l3 -349 350 -3 c223 -1
353 -6 360 -13 5 -5 12 -63 15 -127 l5 -117 67 -3 c80 -3 77 -10 81 148 l2
105 868 3 867 2 11 -27 c5 -14 9 -69 8 -120 -1 -52 3 -99 8 -104 6 -6 39 -9
74 -7 l64 3 2 105 c2 58 5 115 8 128 l5 22 870 0 870 0 5 -22 c3 -13 6 -70 8
-128 l2 -105 58 -3 c84 -4 87 0 87 128 0 78 4 111 14 119 10 8 247 10 877 9
l864 -3 2 -105 c4 -158 1 -151 81 -148 l67 3 5 125 5 125 355 5 355 5 6 60 c3
33 1 66 -4 72 -7 10 -96 13 -361 15 l-351 3 -5 2080 -5 2080 -90 68 c-98 74
-259 193 -333 245 -26 19 -58 42 -72 53 -88 67 -120 89 -130 89 -13 0 -67 -38
-305 -214 -104 -78 -199 -148 -211 -156 -11 -8 -42 -30 -67 -49 l-47 -35 0
-2064 c0 -1403 -3 -2070 -10 -2083 -10 -17 -23 -19 -150 -19 -127 0 -140 2
-150 19 -7 13 -10 621 -10 1894 l0 1875 -132 98 c-242 179 -333 246 -353 260
-11 8 -48 35 -83 60 l-62 46 -38 -24 c-20 -14 -140 -102 -267 -196 -126 -94
-250 -186 -275 -204 -25 -18 -47 -34 -50 -36 -3 -2 -7 -855 -10 -1895 l-5
-1892 -144 -3 c-109 -2 -146 1 -153 10 -4 7 -8 1108 -8 2446 l0 2432 -237 176
c-131 97 -249 185 -263 195 -75 56 -132 91 -143 86 -7 -2 -58 -39 -114 -80
-56 -42 -126 -93 -155 -113 -29 -20 -75 -54 -103 -76 -27 -21 -96 -72 -152
-113 l-103 -75 0 -2432 c0 -1338 -4 -2439 -8 -2446 -7 -9 -44 -12 -153 -10
l-144 3 -5 1918 c-4 1691 -7 1919 -20 1927 -8 5 -108 78 -222 162 -343 254
-377 278 -393 278 -12 0 -122 -76 -200 -138 -5 -4 -26 -18 -45 -32 -28 -19
-373 -275 -382 -283 -2 -1 -5 -864 -8 -1917 l-5 -1915 -216 -3 -217 -2 -6 22
c-8 30 -8 4991 0 5012 9 23 32 19 89 -15 28 -16 57 -32 65 -36 8 -4 48 -26 88
-50 40 -24 74 -43 76 -43 3 0 39 -20 80 -45 42 -25 79 -45 81 -45 2 0 38 -20
78 -45 41 -25 77 -45 81 -45 3 0 35 -18 71 -40 36 -22 68 -40 71 -40 3 0 36
-17 72 -39 190 -110 230 -131 243 -131 14 0 49 28 179 145 31 28 91 82 135
120 43 39 85 77 93 85 9 8 32 28 51 43 20 16 59 50 86 75 28 26 86 79 130 117
43 39 87 77 95 85 30 27 184 166 230 206 49 43 203 179 320 284 141 126 240
210 250 210 7 0 289 -237 310 -260 3 -3 50 -44 105 -90 55 -47 105 -90 110
-96 6 -6 60 -53 120 -105 61 -51 112 -96 115 -99 3 -3 32 -27 65 -55 33 -27
118 -101 190 -164 71 -62 157 -136 189 -165 33 -28 74 -62 92 -76 28 -22 124
-106 219 -192 16 -16 38 -28 49 -28 10 0 252 141 537 313 285 171 541 326 568
342 27 17 84 51 127 78 42 26 79 47 82 47 2 0 35 20 71 43 88 58 177 107 194
107 17 0 39 -17 241 -186 34 -27 78 -63 99 -78 34 -26 51 -68 30 -78 -5 -1
-26 -25 -48 -53 -22 -27 -48 -59 -58 -70 -36 -39 -55 -71 -49 -82 4 -6 43 -16
87 -22 84 -11 199 -30 350 -56 50 -8 131 -22 180 -30 50 -7 125 -19 168 -26
92 -15 105 -9 83 42 -8 19 -24 59 -36 89 -11 30 -25 64 -30 75 -5 11 -18 47
-29 80 -67 197 -200 530 -213 533 -8 1 -46 -37 -88 -88 -106 -132 -100 -130
-179 -67 -36 28 -83 68 -104 87 -21 19 -46 39 -55 44 -10 5 -44 33 -77 61 -87
76 -236 195 -244 195 -10 -1 -81 -42 -444 -261 -188 -114 -356 -215 -374 -225
-18 -11 -189 -113 -380 -229 -191 -115 -356 -213 -366 -217 -13 -6 -36 9 -89
55 -39 34 -92 79 -117 100 -25 22 -73 63 -106 92 -33 29 -181 157 -330 285
-148 128 -301 260 -338 293 -38 33 -80 70 -95 81 -26 20 -71 58 -96 81 -6 6
-63 56 -126 110 -63 55 -119 104 -125 111 -26 29 -187 155 -194 152 -7 -2
-382 -332 -515 -453 -6 -5 -47 -41 -91 -80 -68 -59 -116 -103 -179 -160 -6 -6
-69 -62 -141 -124 -71 -63 -157 -139 -191 -170 -33 -31 -89 -81 -124 -111 -35
-30 -71 -62 -80 -70 -9 -8 -52 -46 -96 -85 -43 -38 -84 -74 -90 -80 -84 -76
-89 -77 -155 -41 -24 14 -55 31 -69 39 -14 7 -50 27 -80 44 -30 17 -120 67
-200 113 -80 46 -174 99 -210 118 -36 19 -77 43 -92 53 -14 11 -29 19 -33 19
-3 0 -37 17 -73 39 -37 21 -104 59 -148 85 -53 30 -84 54 -88 69 -3 12 -6 412
-6 890 l0 867 -68 0 c-38 0 -72 -3 -75 -7z"/>
</g>
</svg>
